<?xml version="1.0" encoding="UTF-8"?>
<svg version="1.1" xmlns="http://www.w3.org/2000/svg" width="640" height="640">
<path d="M0 0 C11.95497889 9.21732112 21.8614055 22.66260508 24 38 C25.02703961 53.92273036 23.69527783 66.92094845 14.9765625 80.66015625 C13.74830945 82.88267817 13.74830945 82.88267817 14.58177185 84.75022888 C16.59852786 87.94945985 19.12320711 90.60382391 21.71508789 93.33618164 C22.62992368 94.30762792 22.62992368 94.30762792 23.563241 95.29869938 C32.51307203 104.73170271 41.7645194 113.87250161 50.97804523 123.0465076 C53.66746482 125.72578178 56.35350228 128.40844216 59.03981018 131.09083557 C65.83603362 137.87607316 72.6365438 144.65700665 79.4375 151.4375 C86.80900215 158.78688002 94.17969923 166.13705833 101.54553562 173.49211746 C104.72592666 176.66756508 107.90872841 179.8405693 111.09348571 183.01163757 C113.07625477 184.98689676 115.05690423 186.96427123 117.0370121 188.9421978 C118.3780842 190.28053661 119.7216752 191.61634993 121.06536865 192.95205688 C125.36995329 197.25626871 129.53172502 201.62149396 133.49048138 206.24703121 C137.78964742 211.23955252 142.40709272 215.95239517 146.99658203 220.67626953 C148.25612489 221.98295931 149.50478158 223.30022464 150.74267578 224.62744141 C152.55002478 226.56228963 154.39080148 228.45892891 156.2421875 230.3515625 C157.05826981 231.24810043 157.05826981 231.24810043 157.89083862 232.16275024 C159.55701291 233.82149197 160.8665023 235.00459852 163 236 C166.21590709 235.89118433 168.9815764 235.06561902 172 234 C188.01174993 230.02272237 205.21267534 232.98721933 219.3046875 241.18359375 C232.6086764 250.1493254 241.35350444 262.76113078 245.61328125 278.2265625 C247.99230101 295.28821939 245.7463691 311.53764585 236 326 C226.65341724 338.12263283 213.41831741 347.56722914 198 350 C196.12950417 349.95777662 194.2597528 349.85751865 192.39453125 349.7109375 C180.39664891 348.39269233 180.39664891 348.39269233 169.44921875 352.05859375 C166.92464757 354.89722642 164.97241764 357.75700658 163 361 C161.5053982 362.87537557 159.98453624 364.73013897 158.4375 366.5625 C157.70402344 367.47128906 156.97054688 368.38007813 156.21484375 369.31640625 C154.04367173 371.94708557 151.79758643 374.47942424 149.5 377 C146.47717579 380.31989486 143.57487839 383.69764112 140.75 387.1875 C136.58915231 392.32694428 132.28265511 397.32326152 127.94067383 402.30908203 C124.40840005 406.36783257 120.90567144 410.44885282 117.4375 414.5625 C113.64585511 419.05982362 109.83271698 423.53761799 106 428 C102.14861013 432.48493578 98.31373166 436.98299781 94.5 441.5 C90.70476273 445.99409053 86.8920907 450.47264267 83.0625 454.9375 C82.56580811 455.51669189 82.06911621 456.09588379 81.55737305 456.69262695 C79.00489582 459.66756041 76.44930018 462.6397708 73.890625 465.609375 C69.3016409 470.94120634 64.74122166 476.28329671 60.3125 481.75 C56.75732096 486.13151795 53.03230463 490.31710681 49.234375 494.48828125 C46.22418594 497.87211266 43.39527194 501.39006287 40.546875 504.91015625 C37.43982803 508.71286749 34.21905411 512.41710375 31 516.125 C30.1352002 517.12116333 30.1352002 517.12116333 29.25292969 518.13745117 C25.15933409 522.84066591 25.15933409 522.84066591 24 524 C23.961183 525.92153634 23.98862053 527.84446521 24.04296875 529.765625 C24.06423828 530.96703125 24.08550781 532.1684375 24.10742188 533.40625 C24.1598369 535.92217137 24.22446447 538.43787521 24.30273438 540.953125 C24.54678021 558.01825608 18.42283721 572.19027396 6.69921875 584.4921875 C-7.52675718 597.70937497 -23.78024585 600.84018062 -42.45214844 600.17919922 C-57.15810751 599.14487822 -70.21464055 590.53221711 -80 580 C-87.24547823 570.66290258 -93.11645987 559.06492648 -93.1328125 547.05859375 C-93.13410156 546.14529297 -93.13539063 545.23199219 -93.13671875 544.29101562 C-93.13285156 543.34935547 -93.12898437 542.40769531 -93.125 541.4375 C-93.12886719 540.49197266 -93.13273438 539.54644531 -93.13671875 538.57226562 C-93.13478516 537.20424805 -93.13478516 537.20424805 -93.1328125 535.80859375 C-93.13168457 534.98157959 -93.13055664 534.15456543 -93.12939453 533.30249023 C-93.00416136 531.07404858 -92.61885376 529.13894789 -92 527 C-92.72487106 526.86775024 -93.44974213 526.73550049 -94.19657898 526.59924316 C-96.84555969 526.03301227 -99.29679754 525.29686261 -101.85473633 524.41210938 C-103.2760788 523.9230159 -103.2760788 523.9230159 -104.72613525 523.42404175 C-105.75108093 523.06754547 -106.77602661 522.71104919 -107.83203125 522.34375 C-108.91635437 521.96928741 -110.00067749 521.59482483 -111.11785889 521.20901489 C-114.68395634 519.97616153 -118.2482838 518.73828065 -121.8125 517.5 C-124.28439725 516.64364072 -126.75632136 515.78735898 -129.22827148 514.93115234 C-148.6220441 508.20575379 -167.98433373 501.39162327 -187.3243866 494.51324463 C-189.11895207 493.87567312 -190.91418559 493.23997809 -192.7101593 492.60638428 C-196.58211745 491.23708286 -200.43696804 489.84452803 -204.26123047 488.34667969 C-204.90503159 488.09977386 -205.5488327 487.85286804 -206.21214294 487.59848022 C-207.88062682 486.95501974 -209.54213441 486.29354608 -211.20288086 485.63037109 C-214.57491202 484.8704353 -215.99164129 485.39578099 -219 487 C-220.37808585 487.90197173 -221.73238236 488.84118096 -223.0625 489.8125 C-237.05110856 499.37255409 -253.41277681 501.21606042 -269.8828125 498.31640625 C-285.29353306 493.84172715 -298.26953029 484.80348721 -306.5 470.875 C-314.24836233 456.02397219 -317.14304564 439.29607005 -312.375 422.875 C-306.20836209 406.25933675 -295.95338164 394.09570901 -279.8125 386.5 C-265.67501874 380.40147867 -249.30804622 379.64163257 -234.69140625 384.83203125 C-232 386 -232 386 -228.90234375 387.69921875 C-226.23110182 389.18655826 -226.23110182 389.18655826 -224.0622139 388.80236149 C-221.46002818 387.789909 -220.07268185 386.44170146 -218.10223389 384.46299744 C-216.9580751 383.32502464 -216.9580751 383.32502464 -215.790802 382.1640625 C-214.96361664 381.32609131 -214.13643127 380.48812012 -213.28417969 379.62475586 C-212.40577423 378.74678848 -211.52736877 377.86882111 -210.62234497 376.96424866 C-208.21633549 374.55650686 -205.8171772 372.14229949 -203.42080593 369.72498775 C-200.9144248 367.19985711 -198.39954956 364.6832155 -195.88555908 362.16566467 C-191.12683272 357.39761278 -186.37580556 352.62196492 -181.62749028 347.8435474 C-176.2210904 342.40361936 -170.80617291 336.97220399 -165.39051962 331.54149044 C-154.25083498 320.37044526 -143.12190677 309.18874666 -132 298 C-133.71713883 296.42532459 -135.43628788 294.85284114 -137.15625 293.28125 C-138.11337891 292.40533203 -139.07050781 291.52941406 -140.05664062 290.62695312 C-142.81213251 288.16767205 -145.62371297 285.81597137 -148.5 283.5 C-153.25595419 279.66280969 -157.75504801 275.60614899 -162.25 271.46875 C-164.93737634 269.05621896 -167.68965444 266.7674379 -170.5 264.5 C-174.28460334 261.44651321 -177.92207537 258.29331699 -181.5 255 C-185.9698512 250.88621091 -190.59044893 247.02912703 -195.31640625 243.21484375 C-197.94708557 241.04367173 -200.47942424 238.79758643 -203 236.5 C-207.38121168 232.50946962 -211.90259975 228.73312415 -216.5234375 225.0234375 C-218.55023593 223.36747285 -220.45876079 221.65366306 -222.375 219.875 C-224.78639216 217.71223862 -224.78639216 217.71223862 -227.3515625 218.2578125 C-230.00747965 219.00209607 -232.4624875 219.92155719 -235 221 C-247.24294405 226.20325122 -263.79111593 225.83912192 -276.15625 221.25 C-294.02708781 213.39468668 -304.72821558 201.72736436 -312.0546875 183.7265625 C-317.01971564 169.40594414 -314.69630169 152.68408635 -308.75 139.15625 C-300.87781601 123.23296875 -287.46943921 113.7100348 -271 108 C-256.19932775 103.92332361 -239.79193756 106.99190728 -226.375 113.625 C-218.54027636 118.12164959 -212.32095642 124.63504621 -206 131 C-195.43724049 124.72788887 -184.93598602 118.37855357 -174.57104492 111.78417969 C-167.75482267 107.45575678 -160.88264939 103.22183646 -154 99 C-145.72788079 93.9243336 -137.48819697 88.80500016 -129.296875 83.60009766 C-121.09601488 78.40209559 -112.81831581 73.32888378 -104.54101562 68.25390625 C-103.47560547 67.60035156 -102.41019531 66.94679688 -101.3125 66.2734375 C-100.35988281 65.68997559 -99.40726563 65.10651367 -98.42578125 64.50537109 C-96.59623282 63.37000519 -94.79157706 62.19438471 -93 61 C-92.64925242 58.78945852 -92.64925242 58.78945852 -92.84765625 56.23046875 C-92.87843262 55.2652832 -92.90920898 54.30009766 -92.94091797 53.30566406 C-92.98104004 52.27666992 -93.02116211 51.24767578 -93.0625 50.1875 C-93.23489463 40.94087891 -92.84703869 33.53561709 -89 25 C-88.5875 24.06414063 -88.175 23.12828125 -87.75 22.1640625 C-79.89625105 6.23344673 -66.46353618 -3.29201181 -50 -9 C-33.22688082 -13.6199644 -14.16368935 -9.54509499 0 0 Z M-90.99609375 79.5 C-91.85162842 80.04930176 -92.70716309 80.59860352 -93.58862305 81.16455078 C-94.52875244 81.77024902 -95.46888184 82.37594727 -96.4375 83 C-104.96708699 88.46473994 -113.55025657 93.83213088 -122.1875 99.125 C-129.65564839 103.70300821 -137.10637619 108.30249589 -144.5 113 C-153.05627643 118.43548866 -161.68967712 123.74169366 -170.32958984 129.04296875 C-179.93976631 134.94638326 -189.47851219 140.95461092 -199 147 C-198.01 157.395 -198.01 157.395 -197 168 C-190.82113444 170.05962185 -184.88525157 171.84293767 -178.56811523 173.25244141 C-177.67256927 173.45609818 -176.77702332 173.65975494 -175.8543396 173.86958313 C-172.92343644 174.53480888 -169.99108815 175.19338993 -167.05859375 175.8515625 C-165.00547309 176.31541299 -162.95241934 176.77955968 -160.89942932 177.24398804 C-156.60914834 178.21345788 -152.31815526 179.17969138 -148.02661133 180.14355469 C-142.53902529 181.37626591 -137.05317624 182.61651478 -131.56782436 183.85912514 C-127.33302802 184.81766169 -123.09739558 185.77245961 -118.86149788 186.72611618 C-116.83874158 187.18192733 -114.81622989 187.63882549 -112.79397392 188.09685135 C-109.96430823 188.73710331 -107.13356711 189.37236903 -104.30249023 190.00634766 C-103.47577316 190.19440475 -102.64905609 190.38246185 -101.79728699 190.57621765 C-96.87505218 191.67187884 -92.01340946 192.44947621 -87 193 C-86.6596875 192.38253906 -86.319375 191.76507813 -85.96875 191.12890625 C-77.20014232 175.80716358 -64.96355886 166.12154165 -47.7734375 161.38671875 C-29.45344276 158.83224061 -12.31660502 161.73993866 2.66015625 173 C12.92547327 181.67055435 21.03496115 194.51182072 23 208 C23.25275832 211.26822381 23.4135523 214.53809239 23.5625 217.8125 C23.60568359 218.69615234 23.64886719 219.57980469 23.69335938 220.49023438 C23.79891536 222.65999623 23.89991071 224.8299791 24 227 C33.26333601 230.95792343 42.6431854 234.55726619 52.078125 238.078125 C53.61780987 238.65456972 55.15742005 239.23121397 56.69696045 239.80804443 C60.73108375 241.31894701 64.76618357 242.82722394 68.80151367 244.3348999 C72.82919234 245.84020916 76.85597954 247.34789893 80.8828125 248.85546875 C85.57361911 250.611591 90.26460566 252.36722235 94.95666504 254.11999512 C101.83447262 256.68963843 108.70995702 259.26474863 115.57617188 261.86523438 C116.70367859 262.29141052 117.8311853 262.71758667 118.99285889 263.15667725 C121.05026216 263.93504206 123.10668704 264.716 125.16192627 265.50006104 C126.0478949 265.83487488 126.93386353 266.16968872 127.84667969 266.51464844 C128.98831573 266.94895172 128.98831573 266.94895172 130.15301514 267.39202881 C131.99254192 268.10422201 131.99254192 268.10422201 134 268 C134.32871094 267.32195312 134.65742188 266.64390625 134.99609375 265.9453125 C138.74226064 258.61541414 143.26113504 252.87914833 149 247 C144.06653775 241.04730465 138.73056918 235.60154123 133.25024414 230.15258789 C132.27528389 229.17955049 131.30055378 228.20628244 130.32603455 227.23280334 C128.23878552 225.14869811 126.14999746 223.06615254 124.05998421 220.98481941 C120.74891469 217.68735859 117.44173981 214.3860098 114.13511658 211.08409119 C106.5181012 203.47908126 98.8960731 195.8791018 91.27397919 188.27918243 C84.28653998 181.31197099 77.30018844 174.34367792 70.31789297 167.37131113 C67.03714696 164.09551923 63.75398522 160.82217456 60.46889317 157.55074131 C58.41838098 155.50773926 56.36998838 153.4626218 54.32213783 151.41695213 C52.93327809 150.03082774 51.5418998 148.64722825 50.15042114 147.26373291 C45.75288922 142.86656901 41.50931116 138.40554762 37.45657063 133.68828678 C35.72258912 131.67845766 33.91249812 129.75981221 32.0559082 127.86303711 C31.36862137 127.15968735 30.68133453 126.45633759 29.97322083 125.73167419 C26.89930217 122.61263118 23.82297254 119.49609111 20.73803711 116.38793945 C19.11028944 114.74348013 17.48794692 113.09365431 15.87084961 111.4387207 C13.52605426 109.03951077 11.165549 106.65684997 8.80078125 104.27734375 C8.0778035 103.53169662 7.35482574 102.7860495 6.60993958 102.01780701 C5.93210922 101.34282669 5.25427887 100.66784637 4.5559082 99.97241211 C3.96413284 99.3725499 3.37235748 98.77268768 2.76264954 98.15464783 C1.06307069 96.77324611 1.06307069 96.77324611 -1.03767395 97.23048401 C-4.96723757 98.77144202 -8.7230854 100.68097579 -12.515625 102.52734375 C-25.44614355 107.99237233 -42.01813025 108.11780209 -55.15234375 103.25390625 C-67.78649023 97.69072241 -77.16012429 90.56187845 -84.72265625 78.87109375 C-85.35494141 77.94490234 -85.35494141 77.94490234 -86 77 C-87.88290637 77 -89.46612164 78.5125188 -90.99609375 79.5 Z M-200 185 C-200.53109375 186.01320312 -201.0621875 187.02640625 -201.609375 188.0703125 C-202.32274694 189.42196459 -203.03629817 190.77352207 -203.75 192.125 C-204.09804687 192.79015625 -204.44609375 193.4553125 -204.8046875 194.140625 C-206.9905431 198.26946336 -209.3423394 202.15716643 -212 206 C-206.61478412 210.9893973 -201.21583096 215.88939465 -195.5 220.5 C-190.74404581 224.33719031 -186.24495199 228.39385101 -181.75 232.53125 C-179.06262366 234.94378104 -176.31034556 237.2325621 -173.5 239.5 C-169.71539666 242.55348679 -166.07792463 245.70668301 -162.5 249 C-158.0301488 253.11378909 -153.40955107 256.97087297 -148.68359375 260.78515625 C-146.05291443 262.95632827 -143.52057576 265.20241357 -141 267.5 C-135.8309735 272.2080942 -130.43398355 276.60349062 -125 281 C-122.99321079 282.65879108 -120.99572671 284.32790465 -119 286 C-114.16701194 281.97251947 -109.61889996 277.75620587 -105.19140625 273.2890625 C-104.57982162 272.67606293 -103.968237 272.06306335 -103.33811951 271.43148804 C-101.41052441 269.49835436 -99.48646072 267.56175013 -97.5625 265.625 C-96.24567596 264.30315301 -94.92862074 262.98153628 -93.61132812 261.66015625 C-90.40487627 258.44275701 -87.20158371 255.22224319 -84 252 C-85.6956673 246.82944999 -87.71456821 241.89252374 -89.87890625 236.90234375 C-91.51251822 232.67316711 -92.11259918 228.64958965 -92.31640625 224.13671875 C-92.35830078 223.25048828 -92.40019531 222.36425781 -92.44335938 221.45117188 C-92.48267578 220.53916016 -92.52199219 219.62714844 -92.5625 218.6875 C-92.60568359 217.75615234 -92.64886719 216.82480469 -92.69335938 215.86523438 C-92.79897225 213.57695546 -92.90107752 211.28857628 -93 209 C-106.65515505 205.86815199 -120.31088167 202.73880731 -133.96727562 199.61236572 C-140.30787513 198.16069612 -146.64828665 196.70821565 -152.98828125 195.25390625 C-159.10213363 193.8515018 -165.21646308 192.45119571 -171.3311348 191.05236816 C-173.6685881 190.51724585 -176.00586595 189.98135652 -178.34296799 189.44470215 C-181.60628215 188.69550276 -184.8701991 187.94898733 -188.13427734 187.203125 C-189.10891434 186.97870728 -190.08355133 186.75428955 -191.08772278 186.52307129 C-191.97395828 186.32113159 -192.86019379 186.11919189 -193.77328491 185.91113281 C-194.54574743 185.73414856 -195.31820995 185.55716431 -196.11408043 185.37481689 C-198.00647134 184.93502256 -198.00647134 184.93502256 -200 185 Z M18 244 C16.46674352 245.90669903 16.46674352 245.90669903 15.25 248.4375 C7.41135142 262.27730846 -4.12696855 269.84344755 -19 275 C-34.00619313 279.13328477 -50.67195221 276.0541636 -64.0625 268.875 C-65.70964064 267.91891536 -67.35561917 266.96082352 -69 266 C-70.32 265.34 -71.64 264.68 -73 264 C-83.56 274.56 -94.12 285.12 -105 296 C-102.98980107 300.02039786 -101.36447777 301.74556572 -98.0625 304.6875 C-97.57523438 305.12320313 -97.08796875 305.55890625 -96.5859375 306.0078125 C-92.42387939 309.69909797 -88.11521544 313.20040137 -83.78125 316.6875 C-79.81516714 319.98514193 -76.06642254 323.49557877 -72.3125 327.03125 C-70.07888919 329.18158918 -70.07888919 329.18158918 -67 330 C-64.68466003 328.97324822 -62.52496469 327.90306243 -60.3125 326.6875 C-47.28255899 319.55035339 -31.16693786 318.5072748 -16.875 322.625 C-3.66895788 327.5154956 7.34229306 335.0029258 15 347 C21.07198847 345.03619079 27.0366971 342.8840848 32.97265625 340.54296875 C33.82977203 340.20706726 34.68688782 339.87116577 35.56997681 339.52508545 C38.40167096 338.41471736 41.23207792 337.30110626 44.0625 336.1875 C46.06022281 335.40352353 48.0580274 334.6197554 50.0559082 333.83618164 C56.70520921 331.22735049 63.35264268 328.61377887 70 326 C72.52894713 325.00579774 75.05792927 324.01168458 77.58691406 323.01757812 C78.22745381 322.76578387 78.86799356 322.51398962 79.52794361 322.25456524 C82.76957909 320.98029814 86.011248 319.7061162 89.25297546 318.43208313 C90.53445506 317.9284381 91.81593395 317.42479126 93.09741211 316.92114258 C94.04252167 316.54970233 94.04252167 316.54970233 95.00672436 316.17075825 C99.3898129 314.44799096 103.77225558 312.72358847 108.15454102 310.9987793 C110.46109374 310.09161753 112.76765267 309.18447156 115.07421875 308.27734375 C116.13774567 307.8583783 117.20127258 307.43941284 118.29702759 307.00775146 C119.27110565 306.62483948 120.24518372 306.24192749 121.2487793 305.84741211 C122.09820602 305.51309677 122.94763275 305.17878143 123.82279968 304.83433533 C125.53241887 304.179184 127.26310077 303.57896641 129 303 C129 296.73 129 290.46 129 284 C126.80601562 283.20722656 124.61203125 282.41445313 122.3515625 281.59765625 C119.10850348 280.42166388 115.86667418 279.24230391 112.625 278.0625 C111.75928375 277.74763641 110.8935675 277.43277283 110.00161743 277.10836792 C96.86790811 272.32394841 83.78380318 267.41582322 70.72265625 262.4375 C69.22199742 261.86605079 67.72132603 261.2946346 66.22064209 260.72325134 C59.45949004 258.14801923 52.70000942 255.56863928 45.94601154 252.97469521 C43.10235965 251.88401187 40.25669838 250.79864537 37.41055107 249.7144928 C36.07182644 249.2031115 34.73401447 248.68933392 33.39717293 248.17304993 C31.55445767 247.46161724 29.70833435 246.75903081 27.86206055 246.05688477 C26.82212448 245.65800552 25.78218842 245.25912628 24.71073914 244.84815979 C21.83713902 243.80092468 21.83713902 243.80092468 18 244 Z M-119 310 C-119.62116699 310.6233876 -120.24233398 311.24677521 -120.88232422 311.88905334 C-126.76374608 317.79059084 -132.64762957 323.68966088 -138.53422546 329.58603764 C-141.55980434 332.61681412 -144.58445469 335.64850482 -147.60693359 338.68237305 C-150.52895902 341.61533904 -153.45348775 344.54578805 -156.37969971 347.47457695 C-157.49041507 348.58712656 -158.6002565 349.70054944 -159.70916748 350.81489754 C-165.04405513 356.17487755 -170.39158203 361.44885972 -176.14233398 366.36817932 C-179.58103549 369.38882145 -182.77711281 372.65501402 -186 375.90234375 C-187.08172485 376.98619102 -187.08172485 376.98619102 -188.18530273 378.0919342 C-190.45925415 380.37142604 -192.72967954 382.6543924 -195 384.9375 C-196.55315235 386.49567506 -198.10653567 388.05361993 -199.66015625 389.61132812 C-203.44277586 393.40489759 -207.2225169 397.20131615 -211 401 C-210.06837036 402.61986816 -210.06837036 402.61986816 -209.11791992 404.27246094 C-207.72882972 406.70395171 -206.3680381 409.13643291 -205.11328125 411.640625 C-204.81486328 412.23617187 -204.51644531 412.83171875 -204.20898438 413.4453125 C-203.76522461 414.33863281 -203.76522461 414.33863281 -203.3125 415.25 C-203.00505859 415.86101562 -202.69761719 416.47203125 -202.38085938 417.1015625 C-201.07840541 419.71217044 -199.92410057 422.22769828 -199 425 C-191.37097688 424.41400623 -184.38775706 422.63141206 -177.04296875 420.53515625 C-175.79750275 420.18585556 -174.55203674 419.83655487 -173.26882935 419.47666931 C-169.92726609 418.53948116 -166.58813219 417.59390752 -163.24942398 416.64660645 C-159.80269916 415.67021051 -156.35380609 414.70154007 -152.9050293 413.73242188 C-148.78566657 412.57438967 -144.66649823 411.41568931 -140.5483551 410.25332642 C-132.71749449 408.04312424 -124.88252238 405.84874041 -117.0390625 403.68359375 C-116.17974625 403.44625015 -115.32042999 403.20890656 -114.43507385 402.96437073 C-111.30850975 402.10131567 -108.18175407 401.23897233 -105.05429077 400.37918091 C-103.01095414 399.81708037 -100.96830154 399.25255825 -98.92578125 398.6875 C-97.26156128 398.22923828 -97.26156128 398.22923828 -95.5637207 397.76171875 C-93.04144571 397.0932023 -93.04144571 397.0932023 -91 396 C-91.23783203 394.58074219 -91.23783203 394.58074219 -91.48046875 393.1328125 C-93.87063507 376.22758645 -92.11651814 361.06308061 -83.171875 346.33984375 C-81.70145962 343.84006418 -81.70145962 343.84006418 -82 340 C-84.04864282 337.6097627 -84.04864282 337.6097627 -86.8125 335.3125 C-87.30806396 334.87752197 -87.80362793 334.44254395 -88.31420898 333.99438477 C-92.55152749 330.30338509 -96.91389049 326.76299148 -101.29296875 323.2421875 C-104.90129049 320.25347656 -108.31167583 317.07070202 -111.7109375 313.84765625 C-114.07853585 311.93660844 -116.17269129 311.06104614 -119 310 Z M125.86328125 321.61328125 C125.13239792 321.89454361 124.40151459 322.17580597 123.64848328 322.46559143 C121.20110575 323.40934868 118.75677966 324.36075082 116.3125 325.3125 C114.58406849 325.98149992 112.85555102 326.65027777 111.12695312 327.31884766 C94.12452061 333.90748542 77.17332297 340.62716136 60.22724915 347.35914612 C59.28600693 347.73304977 58.34476471 348.10695343 57.375 348.4921875 C56.45071701 348.85936386 55.52643402 349.22654022 54.57414246 349.60484314 C44.06460035 353.77525642 33.53336931 357.89021151 23 362 C23.02094727 362.74983154 23.04189453 363.49966309 23.06347656 364.2722168 C23.73771277 392.03751988 23.73771277 392.03751988 19 402 C18.57589844 402.94230469 18.15179688 403.88460937 17.71484375 404.85546875 C10.0016429 420.43226713 -2.86004974 429.40420063 -19 435 C-33.82860151 439.08436919 -50.26964947 436.01209436 -63.6875 429.3125 C-71.35592296 424.895309 -77.61350125 418.98158949 -83 412 C-92.36621784 413.68774951 -101.47016547 416.22648718 -110.6328125 418.76171875 C-112.35457541 419.23558842 -114.07640914 419.70920083 -115.79830933 420.18257141 C-119.40471493 421.17480511 -123.01046525 422.16937411 -126.61572266 423.16577148 C-131.1618832 424.42213017 -135.70929575 425.67388026 -140.25716019 426.9240551 C-159.21512026 432.13669327 -178.15287637 437.39702939 -197 443 C-197.18949219 444.13614746 -197.37898438 445.27229492 -197.57421875 446.44287109 C-198.76083942 453.48978736 -199.87967452 459.94113888 -203.328125 466.30078125 C-204.29009926 468.20121334 -204.29009926 468.20121334 -203 471 C-201.17800381 472.01561653 -201.17800381 472.01561653 -198.87475586 472.72314453 C-197.9869191 473.0290451 -197.09908234 473.33494568 -196.18434143 473.65011597 C-194.71444008 474.13655075 -194.71444008 474.13655075 -193.21484375 474.6328125 C-191.68022743 475.15683151 -191.68022743 475.15683151 -190.11460876 475.69143677 C-186.72571613 476.84648097 -183.3316284 477.98544334 -179.9375 479.125 C-176.38831836 480.33110036 -172.84065405 481.54158998 -169.29309082 482.75244141 C-166.85399651 483.58478715 -164.41445519 484.41582405 -161.9744873 485.24560547 C-148.57442164 489.80812163 -135.2399584 494.55177005 -121.90792847 499.30865479 C-109.64980683 503.68072636 -97.36560162 507.94101842 -85 512 C-84.46890625 511.22769043 -83.9378125 510.45538086 -83.390625 509.65966797 C-74.51228689 496.87642031 -62.57545304 487.81922359 -47.13427734 484.34204102 C-30.44008834 481.66661677 -14.09193607 484.52186818 0 494 C5.33957169 498.32360168 10.15925342 503.13359576 15 508 C20.72601307 501.81973119 26.23504326 495.55889453 31.53125 489.00390625 C34.40037224 485.51283821 37.34644461 482.09621768 40.3125 478.6875 C41.13923218 477.73713867 41.13923218 477.73713867 41.98266602 476.76757812 C43.10178159 475.48151545 44.22100376 474.19554552 45.34033203 472.90966797 C51.54872623 465.76608759 57.72823972 458.60354128 63.6875 451.25 C67.24267904 446.86848205 70.96769537 442.68289319 74.765625 438.51171875 C77.00134533 435.99848768 79.13377682 433.42688521 81.25 430.8125 C85.41084769 425.67305572 89.71734489 420.67673848 94.05932617 415.69091797 C97.59160084 411.63216642 101.09427037 407.55109891 104.5625 403.4375 C108.33573019 398.96316516 112.12651924 394.50473995 115.9375 390.0625 C116.68265869 389.19359131 116.68265869 389.19359131 117.44287109 388.30712891 C119.99523989 385.33225354 122.5507747 382.36014229 125.109375 379.390625 C129.6983591 374.05879366 134.25877834 368.71670329 138.6875 363.25 C142.3027503 358.79338236 146.07648494 354.51595994 149.95703125 350.2890625 C150.63121094 349.53367187 151.30539062 348.77828125 152 348 C152.76699219 347.14148438 153.53398437 346.28296875 154.32421875 345.3984375 C154.87722656 344.60695313 155.43023437 343.81546875 156 343 C154.8225966 339.46778981 153.91642487 339.01712679 150.9375 336.9375 C144.64316185 332.21171896 139.29588577 326.20457442 136 319 C132.24032206 319 129.31083504 320.26594594 125.86328125 321.61328125 Z " fill="#596371" transform="translate(355,29)"/>
<path d="M0 0 C0.64771508 1.91603157 1.29309948 3.83285113 1.9375 5.75 C2.47697266 7.35101563 2.47697266 7.35101563 3.02734375 8.984375 C3.78074063 11.32020789 4.42264579 13.61869471 5 16 C-2.18325576 21.16987301 -9.56428538 25.90400196 -17.125 30.5 C-19.44110732 31.91502906 -21.75571341 33.3325056 -24.0703125 34.75 C-24.65258606 35.10622437 -25.23485962 35.46244873 -25.83477783 35.82946777 C-31.58066003 39.34781233 -37.29238733 42.91995621 -43 46.5 C-51.41133013 51.77232682 -59.8519657 56.99451649 -68.3125 62.1875 C-76.15115293 67.00070794 -83.97285547 71.83791711 -91.75 76.75 C-92.50579346 77.22719482 -93.26158691 77.70438965 -94.0402832 78.19604492 C-97.19260314 80.19372975 -100.31705107 82.21110364 -103.390625 84.328125 C-106 86 -106 86 -108 86 C-107.690625 87.051875 -107.38125 88.10375 -107.0625 89.1875 C-106.0794348 93.05353052 -105.71173817 96.82406782 -105.43359375 100.80078125 C-105.3087561 102.54548706 -105.3087561 102.54548706 -105.18139648 104.32543945 C-105.09160522 105.64934692 -105.09160522 105.64934692 -105 107 C-104.46162349 107.12276778 -103.92324697 107.24553556 -103.36855602 107.37202358 C-90.27349153 110.35824278 -77.17880886 113.3461311 -64.08453655 116.33582211 C-57.75225745 117.78155806 -51.41985216 119.22673648 -45.0871582 120.6706543 C-38.97905495 122.06338452 -32.8712836 123.45756154 -26.76374245 124.85275459 C-24.43020269 125.38555313 -22.09654256 125.91782474 -19.76276207 126.44956779 C-16.50127323 127.19277914 -13.24021226 127.93784029 -9.97924805 128.68334961 C-9.00820633 128.90417206 -8.03716461 129.12499451 -7.03669739 129.35250854 C-5.70528214 129.65748009 -5.70528214 129.65748009 -4.3469696 129.96861267 C-3.18965851 130.23270636 -3.18965851 130.23270636 -2.0089674 130.50213528 C-0.31742644 130.921335 1.34671983 131.44890661 3 132 C2.31092878 135.65943647 1.43178734 139.22441959 0.4375 142.8125 C0.16808594 143.78832031 -0.10132813 144.76414063 -0.37890625 145.76953125 C-0.68634766 146.87361328 -0.68634766 146.87361328 -1 148 C-7.44026164 147.38996189 -13.5941919 146.33255621 -19.89428711 144.8828125 C-20.83848511 144.66969421 -21.78268311 144.45657593 -22.75549316 144.23699951 C-25.84722703 143.53782636 -28.93729499 142.83158006 -32.02734375 142.125 C-34.18437207 141.63522142 -36.34148296 141.14580637 -38.49867249 140.65673828 C-43.00380841 139.63425902 -47.50817043 138.60845854 -52.01196289 137.58007812 C-57.79358309 136.2600474 -63.5767013 134.9467253 -69.36035824 133.63565063 C-73.80706104 132.62717168 -78.25315079 131.6160127 -82.69903755 130.60394287 C-84.83241846 130.1184717 -86.96594675 129.63364775 -89.09962273 129.1494751 C-92.07084167 128.47465225 -95.04126306 127.79642864 -98.01147461 127.1171875 C-99.34001213 126.81636261 -99.34001213 126.81636261 -100.69538879 126.50946045 C-106.77107257 125.11446371 -106.77107257 125.11446371 -109 124 C-109.20625 124.78375 -109.4125 125.5675 -109.625 126.375 C-111.49315391 131.30013303 -114.22342689 135.54193986 -117 140 C-118.00272308 141.66502979 -119.00350176 143.33123727 -120 145 C-114.96365529 149.62120133 -109.88291427 154.14437033 -104.5625 158.4375 C-99.788597 162.29825137 -95.26611572 166.37437075 -90.75 170.53125 C-88.06262366 172.94378104 -85.31034556 175.2325621 -82.5 177.5 C-78.71539666 180.55348679 -75.07792463 183.70668301 -71.5 187 C-67.0301488 191.11378909 -62.40955107 194.97087297 -57.68359375 198.78515625 C-55.05291443 200.95632827 -52.52057576 203.20241357 -50 205.5 C-44.8309735 210.2080942 -39.43398355 214.60349062 -34 219 C-31.99321079 220.65879108 -29.99572671 222.32790465 -28 224 C-23.16701194 219.97251947 -18.61889996 215.75620587 -14.19140625 211.2890625 C-13.57982162 210.67606293 -12.968237 210.06306335 -12.33811951 209.43148804 C-10.41052441 207.49835436 -8.48646072 205.56175013 -6.5625 203.625 C-5.24567596 202.30315301 -3.92862074 200.98153628 -2.61132812 199.66015625 C0.59512373 196.44275701 3.79841629 193.22224319 7 190 C11 194 15 198 19 202 C15.10023279 206.66874537 11.04785356 211.09127809 6.7265625 215.37109375 C6.15795502 215.93828629 5.58934753 216.50547882 5.00350952 217.08985901 C3.21303764 218.87479913 1.41909516 220.65620256 -0.375 222.4375 C-1.60049323 223.65796939 -2.82575572 224.87867053 -4.05078125 226.09960938 C-7.03119774 229.06908756 -10.01472894 232.03540257 -13 235 C-11.34004647 238.55095777 -9.52471095 240.5854939 -6.5625 243.1875 C-5.6653125 243.97640625 -4.768125 244.7653125 -3.84375 245.578125 C-0.21871676 248.66537859 3.47569288 251.66065579 7.1796875 254.65234375 C11.17521526 257.9782609 14.978463 261.4921722 18.78515625 265.03125 C20.83679121 267.02671788 20.83679121 267.02671788 23 268 C21.87267591 271.38197228 20.85817627 272.24057814 18.1875 274.5 C17.50042969 275.0878125 16.81335938 275.675625 16.10546875 276.28125 C14.10841956 277.91149424 12.0749438 279.47060322 10 281 C9.26136719 280.31035156 8.52273438 279.62070312 7.76171875 278.91015625 C1.88910795 273.45910874 -4.07410961 268.22289619 -10.328125 263.20703125 C-13.92777426 260.23363676 -17.32365133 257.05934732 -20.7109375 253.84765625 C-23.07853585 251.93660844 -25.17269129 251.06104614 -28 250 C-28.62116699 250.6233876 -29.24233398 251.24677521 -29.88232422 251.88905334 C-35.76374608 257.79059084 -41.64762957 263.68966088 -47.53422546 269.58603764 C-50.55980434 272.61681412 -53.58445469 275.64850482 -56.60693359 278.68237305 C-59.52895902 281.61533904 -62.45348775 284.54578805 -65.37969971 287.47457695 C-66.49041507 288.58712656 -67.6002565 289.70054944 -68.70916748 290.81489754 C-74.04842507 296.17926804 -79.40022239 301.45829937 -85.15576172 306.38160706 C-88.51398691 309.32858414 -91.6355728 312.5132673 -94.78125 315.68359375 C-95.48020386 316.38396255 -96.17915771 317.08433136 -96.89929199 317.80592346 C-99.10191539 320.01408458 -101.30101081 322.22572037 -103.5 324.4375 C-105.00497508 325.94749814 -106.51018135 327.4572659 -108.015625 328.96679688 C-111.67975829 332.64187641 -115.3407348 336.32007356 -119 340 C-118.37963867 341.07991211 -117.75927734 342.15982422 -117.12011719 343.27246094 C-115.05763606 346.88276775 -113.12211172 350.53791581 -111.25 354.25 C-110.93417969 354.86101562 -110.61835938 355.47203125 -110.29296875 356.1015625 C-108.86060751 358.94148219 -108 360.77309289 -108 364 C-92.33439625 360.04842102 -76.74489651 355.85927204 -61.1875 351.50390625 C-59.89910721 351.14340242 -59.89910721 351.14340242 -58.58468628 350.77561569 C-50.55344735 348.52754191 -42.52423592 346.27226195 -34.49560547 344.01489258 C-30.04986303 342.76517031 -25.60308745 341.51918247 -21.15567017 340.27543449 C-18.66697844 339.57816752 -16.17956065 338.87647861 -13.69213867 338.17469788 C-12.18284877 337.75236832 -10.6734937 337.33027153 -9.1640625 336.90844727 C-8.4785582 336.71372833 -7.79305389 336.5190094 -7.08677673 336.31838989 C-4.28399743 335.53964215 -1.92643989 335 1 335 C2.17154293 337.28929053 3.33738074 339.58118362 4.5 341.875 C4.83386719 342.52597656 5.16773438 343.17695313 5.51171875 343.84765625 C8 348.7734375 8 348.7734375 8 351 C-1.73007744 353.71411844 -11.46044982 356.42717691 -21.19116116 359.13902187 C-25.71359458 360.39940829 -30.23594001 361.66010827 -34.75805664 362.92163086 C-52.42601449 367.85013305 -70.09507982 372.77508135 -87.78538704 377.62288094 C-89.23236772 378.0196603 -90.67912245 378.41726471 -92.12563896 378.81573296 C-94.09877233 379.35892825 -96.07291819 379.89844177 -98.04711914 380.43774414 C-99.70838585 380.89293175 -99.70838585 380.89293175 -101.4032135 381.35731506 C-104 382 -104 382 -106 382 C-105.9175 383.051875 -105.835 384.10375 -105.75 385.1875 C-105.72774179 391.43092749 -108.01270683 397.15416679 -110 403 C-110.66739969 404.99975551 -111.3341696 406.99972144 -112 409 C-111.45512939 409.18775497 -110.91025879 409.37550995 -110.34887695 409.56895447 C-82.83669802 419.05142999 -55.3500866 428.60010148 -27.92773438 438.33959961 C-26.99178436 438.67201157 -26.05583435 439.00442352 -25.09152222 439.34690857 C-23.28165717 439.99045817 -21.47217459 440.63508464 -19.66311646 441.28089905 C-15.41854938 442.7948104 -11.16925717 444.28999403 -6.90380859 445.74414062 C-6.10802902 446.01764343 -5.31224945 446.29114624 -4.49235535 446.57293701 C-3.00398792 447.08337703 -1.51360901 447.58800283 -0.02095032 448.08575439 C4.88816062 449.77632123 4.88816062 449.77632123 6 452 C5.0390625 454.49609375 5.0390625 454.49609375 3.625 457.4375 C2.26442584 460.29166536 1.00046373 462.99860881 0 466 C-5.92952938 465.30520162 -11.3258463 463.30274107 -16.9296875 461.34375 C-18.01259567 460.96928741 -19.09550385 460.59482483 -20.21122742 460.20901489 C-23.76754228 458.97758535 -27.32131394 457.73899338 -30.875 456.5 C-33.34228447 455.64348103 -35.80965194 454.78720107 -38.27709961 453.93115234 C-57.6526796 447.20045193 -76.99912084 440.38667199 -96.32452393 433.51324463 C-98.11903415 432.87566082 -99.9142167 432.23996539 -101.71014404 431.60638428 C-105.58210945 430.23708852 -109.43696347 428.84452981 -113.26123047 427.34667969 C-113.90503159 427.09977386 -114.5488327 426.85286804 -115.21214294 426.59848022 C-116.88062682 425.95501974 -118.54213441 425.29354608 -120.20288086 424.63037109 C-123.57491202 423.8704353 -124.99164129 424.39578099 -128 426 C-129.37808585 426.90197173 -130.73238236 427.84118096 -132.0625 428.8125 C-146.05110856 438.37255409 -162.41277681 440.21606042 -178.8828125 437.31640625 C-194.29353306 432.84172715 -207.26953029 423.80348721 -215.5 409.875 C-223.24836233 395.02397219 -226.14304564 378.29607005 -221.375 361.875 C-215.20836209 345.25933675 -204.95338164 333.09570901 -188.8125 325.5 C-174.67501874 319.40147867 -158.30804622 318.64163257 -143.69140625 323.83203125 C-141 325 -141 325 -137.90234375 326.69921875 C-135.23110182 328.18655826 -135.23110182 328.18655826 -133.0622139 327.80236149 C-130.46002818 326.789909 -129.07268185 325.44170146 -127.10223389 323.46299744 C-125.9580751 322.32502464 -125.9580751 322.32502464 -124.790802 321.1640625 C-123.96361664 320.32609131 -123.13643127 319.48812012 -122.28417969 318.62475586 C-121.40577423 317.74678848 -120.52736877 316.86882111 -119.62234497 315.96424866 C-117.21633549 313.55650686 -114.8171772 311.14229949 -112.42080593 308.72498775 C-109.9144248 306.19985711 -107.39954956 303.6832155 -104.88555908 301.16566467 C-100.12683272 296.39761278 -95.37580556 291.62196492 -90.62749028 286.8435474 C-85.2210904 281.40361936 -79.80617291 275.97220399 -74.39051962 270.54149044 C-63.25083498 259.37044526 -52.12190677 248.18874666 -41 237 C-42.71713883 235.42532459 -44.43628788 233.85284114 -46.15625 232.28125 C-47.11337891 231.40533203 -48.07050781 230.52941406 -49.05664062 229.62695312 C-51.81213251 227.16767205 -54.62371297 224.81597137 -57.5 222.5 C-62.25595419 218.66280969 -66.75504801 214.60614899 -71.25 210.46875 C-73.93737634 208.05621896 -76.68965444 205.7674379 -79.5 203.5 C-83.28460334 200.44651321 -86.92207537 197.29331699 -90.5 194 C-94.9698512 189.88621091 -99.59044893 186.02912703 -104.31640625 182.21484375 C-106.94708557 180.04367173 -109.47942424 177.79758643 -112 175.5 C-116.38121168 171.50946962 -120.90259975 167.73312415 -125.5234375 164.0234375 C-127.55023593 162.36747285 -129.45876079 160.65366306 -131.375 158.875 C-133.78639216 156.71223862 -133.78639216 156.71223862 -136.3515625 157.2578125 C-139.00747965 158.00209607 -141.4624875 158.92155719 -144 160 C-156.24294405 165.20325122 -172.79111593 164.83912192 -185.15625 160.25 C-203.02708781 152.39468668 -213.72821558 140.72736436 -221.0546875 122.7265625 C-226.01971564 108.40594414 -223.69630169 91.68408635 -217.75 78.15625 C-209.87781601 62.23296875 -196.46943921 52.7100348 -180 47 C-165.19932775 42.92332361 -148.79193756 45.99190728 -135.375 52.625 C-127.54027636 57.12164959 -121.32095642 63.63504621 -115 70 C-104.43724049 63.72788887 -93.93598602 57.37855357 -83.57104492 50.78417969 C-76.75482267 46.45575678 -69.88264939 42.22183646 -63 38 C-54.72788079 32.9243336 -46.48819697 27.80500016 -38.296875 22.60009766 C-30.09601488 17.40209559 -21.81831581 12.32888378 -13.54101562 7.25390625 C-12.47560547 6.60035156 -11.41019531 5.94679688 -10.3125 5.2734375 C-9.35988281 4.68997559 -8.40726563 4.10651367 -7.42578125 3.50537109 C-1.7771651 0 -1.7771651 0 0 0 Z " fill="#2D6AD5" transform="translate(264,90)"/>
<path d="M0 0 C11.95497889 9.21732112 21.8614055 22.66260508 24 38 C25.02703961 53.92273036 23.69527783 66.92094845 14.9765625 80.66015625 C13.74830945 82.88267817 13.74830945 82.88267817 14.58177185 84.75022888 C16.59852786 87.94945985 19.12320711 90.60382391 21.71508789 93.33618164 C22.32497842 93.98381249 22.93486895 94.63144335 23.563241 95.29869938 C32.51307203 104.73170271 41.7645194 113.87250161 50.97804523 123.0465076 C53.66746482 125.72578178 56.35350228 128.40844216 59.03981018 131.09083557 C65.83603362 137.87607316 72.6365438 144.65700665 79.4375 151.4375 C86.80900215 158.78688002 94.17969923 166.13705833 101.54553562 173.49211746 C104.72592666 176.66756508 107.90872841 179.8405693 111.09348571 183.01163757 C113.07625477 184.98689676 115.05690423 186.96427123 117.0370121 188.9421978 C118.3780842 190.28053661 119.7216752 191.61634993 121.06536865 192.95205688 C125.36603685 197.25235262 129.52159793 201.61183709 133.46756935 206.24116611 C136.17317197 209.34649788 139.1037349 212.22661568 142.02734375 215.125 C142.66112442 215.75736572 143.29490509 216.38973145 143.94789124 217.04125977 C145.94205978 219.02989986 147.93970353 221.01500527 149.9375 223 C151.30296745 224.36044318 152.66820386 225.72111831 154.03320312 227.08203125 C157.35280886 230.3907031 160.67553273 233.69621322 164 237 C161.36923129 239.99999941 158.25820168 241.72382055 154.8125 243.6875 C153.72582031 244.31011719 152.63914062 244.93273437 151.51953125 245.57421875 C150.27236328 246.27998047 150.27236328 246.27998047 149 247 C135.16676522 233.19016238 121.3364223 219.37743491 107.50948238 205.56129456 C101.0888196 199.14578027 94.66722662 192.73120234 88.2434082 186.31884766 C82.64209995 180.72753052 77.0425728 175.13443675 71.44514567 169.53923416 C68.48340947 166.57879756 65.5208104 163.61923662 62.55607414 160.6618042 C59.76076433 157.87332455 56.96785727 155.0824601 54.17670822 152.2898159 C53.15655382 151.2699347 52.13555401 150.25089825 51.11360741 149.23281288 C46.04188068 144.17929683 41.08751549 139.09134634 36.42503262 133.65619087 C34.73172581 131.68820835 32.96293712 129.81056697 31.14770508 127.95483398 C30.14680595 126.92984047 30.14680595 126.92984047 29.12568665 125.88414001 C26.14337822 122.85667423 23.15862441 119.83174798 20.1652832 116.81518555 C18.58603875 115.21922605 17.01220048 113.61790025 15.44360352 112.01147461 C13.16830473 109.68175982 10.877307 107.3686084 8.58203125 105.05859375 C7.53037529 103.97293373 7.53037529 103.97293373 6.45747375 102.86534119 C5.79966415 102.21038162 5.14185455 101.55542206 4.46411133 100.88061523 C3.89010086 100.29851791 3.31609039 99.71642059 2.72468567 99.11668396 C1.05396163 97.77515876 1.05396163 97.77515876 -1.03193665 98.23622131 C-4.96791168 99.76371982 -8.7223306 101.68060832 -12.515625 103.52734375 C-25.44390222 108.99142504 -42.02638637 109.12293908 -55.15625 104.25 C-70.85155435 97.35096512 -82.42031007 87.44772114 -88.75 71.3125 C-89.51833066 69.2149573 -90.26901619 67.11084818 -91 65 C-91.36867188 64.08734375 -91.73734375 63.1746875 -92.1171875 62.234375 C-96.032535 47.88965053 -92.80250683 32.37609336 -86.375 19.375 C-77.77842595 4.59492531 -64.18430688 -5.09309442 -47.7734375 -9.61328125 C-30.71178061 -11.99230101 -14.46235415 -9.7463691 0 0 Z " fill="#596371" transform="translate(355,29)"/>
<path d="M0 0 C1.9009762 2.8514643 2.96265899 5.29710476 4.125 8.5 C4.65480469 9.93859375 4.65480469 9.93859375 5.1953125 11.40625 C6 14 6 14 6 17 C-1.73768386 20.04185186 -9.47562199 23.08305653 -17.21370316 26.12389755 C-19.11757119 26.87208062 -21.02141798 27.62031775 -22.92526245 28.36856079 C-36.51776509 33.71044549 -50.11188832 39.04805518 -63.71484375 44.36328125 C-64.77320435 44.77690918 -65.83156494 45.19053711 -66.92199707 45.61669922 C-71.90261195 47.56297206 -76.88376849 49.50784159 -81.86572266 51.45068359 C-83.65138071 52.14807734 -85.437026 52.84550381 -87.22265625 53.54296875 C-88.01502182 53.85140213 -88.80738739 54.15983551 -89.62376404 54.47761536 C-93.07051844 55.82496576 -96.48244862 57.20538136 -99.86108398 58.71606445 C-103 60 -103 60 -106 60 C-105.84144531 60.78246094 -105.68289063 61.56492187 -105.51953125 62.37109375 C-103.03326664 79.73755861 -105.04608056 96.22966793 -115 111 C-124.21732112 122.95497889 -137.66260508 132.8614055 -153 135 C-172.42898846 136.25319844 -188.67695772 133.28168147 -203.8125 120.25 C-208.67021107 115.61999413 -212.03666365 110.99558749 -215 105 C-215.5465625 103.8965625 -216.093125 102.793125 -216.65625 101.65625 C-222.9747102 88.42324845 -224.53129874 73.18922387 -220.375 58.875 C-219.63639358 56.89604419 -218.84650943 54.93525898 -218 53 C-217.41605469 51.60974609 -217.41605469 51.60974609 -216.8203125 50.19140625 C-209.82724627 35.60527698 -196.40120489 25.94969883 -181.796875 19.98046875 C-167.47429996 14.95956605 -150.69745567 17.29782168 -137.15625 23.25 C-127.58615148 27.98128466 -119.65804088 34.96813892 -114 44 C-107.92801153 42.03619079 -101.9633029 39.8840848 -96.02734375 37.54296875 C-95.17022797 37.20706726 -94.31311218 36.87116577 -93.43002319 36.52508545 C-90.59832904 35.41471736 -87.76792208 34.30110626 -84.9375 33.1875 C-82.93977719 32.40352353 -80.9419726 31.6197554 -78.9440918 30.83618164 C-72.29479079 28.22735049 -65.64735732 25.61377887 -59 23 C-56.47105287 22.00579774 -53.94207073 21.01168458 -51.41308594 20.01757812 C-50.77254619 19.76578387 -50.13200644 19.51398962 -49.47205639 19.25456524 C-46.23042091 17.98029814 -42.988752 16.7061162 -39.74702454 15.43208313 C-38.46554494 14.9284381 -37.18406605 14.42479126 -35.90258789 13.92114258 C-35.27251485 13.67351575 -34.64244181 13.42588892 -33.99327564 13.17075825 C-29.6101871 11.44799096 -25.22774442 9.72358847 -20.84545898 7.9987793 C-18.53890626 7.09161753 -16.23234733 6.18447156 -13.92578125 5.27734375 C-12.86225433 4.8583783 -11.79872742 4.43941284 -10.70297241 4.00775146 C-9.72889435 3.62483948 -8.75481628 3.24192749 -7.7512207 2.84741211 C-6.90179398 2.51309677 -6.05236725 2.17878143 -5.17720032 1.83433533 C-3.46758113 1.179184 -1.73689923 0.57896641 0 0 Z " fill="#596371" transform="translate(484,331)"/>
<path d="M0 0 C12.15896802 9.37459729 21.50350481 22.56781898 24 38 C24.25830984 41.26776797 24.41355462 44.53814338 24.5625 47.8125 C24.60568359 48.69615234 24.64886719 49.57980469 24.69335938 50.49023438 C24.79891536 52.65999623 24.89991071 54.8299791 25 57 C25.7948027 57.29464142 26.58960541 57.58928284 27.40849304 57.89285278 C31.27630457 59.32681831 35.1440302 60.7610153 39.01171875 62.1953125 C39.73310154 62.46281563 40.45448433 62.73031876 41.1977272 63.00592804 C49.92151746 66.24110252 58.64407158 69.479564 67.36401367 72.72509766 C68.15945619 73.02113325 68.9548987 73.31716885 69.77444553 73.62217522 C76.17583174 76.00458468 76.17583174 76.00458468 79.35507393 77.18819809 C87.8942384 80.36688298 96.43653857 83.53562796 104.99583435 86.65982056 C108.50265686 87.94099416 112.0054359 89.23293288 115.50723267 90.527771 C117.03784933 91.09030134 118.57054826 91.64719957 120.10531616 92.19830322 C122.16553877 92.9385122 124.21800162 93.69703625 126.26953125 94.4609375 C127.36885986 94.86103027 128.46818848 95.26112305 129.60083008 95.67333984 C132 97 132 97 132.89306641 98.95654297 C133.05494843 102.05004201 132.31128506 104.75485977 131.5625 107.75 C131.27503906 108.92046875 130.98757813 110.0909375 130.69140625 111.296875 C130.46324219 112.18890625 130.23507812 113.0809375 130 114 C125.02621519 113.43399045 120.73448068 112.34974735 116.05615234 110.58251953 C115.39945557 110.33669632 114.74275879 110.09087311 114.06616211 109.83760071 C111.90347356 109.02609977 109.74475996 108.20453706 107.5859375 107.3828125 C106.05138879 106.8046331 104.51660394 106.2270801 102.9815979 105.65011597 C98.92973923 104.12518124 94.88118161 102.59166392 90.83325195 101.05633545 C86.82439854 99.5375378 82.81245358 98.02695733 78.80078125 96.515625 C66.6382483 91.9306312 54.48177964 87.32984159 42.33691406 82.69824219 C40.33025067 81.9338492 38.32353991 81.16958066 36.31682205 80.40533066 C34.46413975 79.69878514 32.61247195 78.9895812 30.76083374 78.28030396 C29.65849396 77.86022064 28.55615417 77.44013733 27.42041016 77.00732422 C26.4642984 76.64162323 25.50818665 76.27592224 24.52310181 75.8991394 C22.35713499 75.1272696 20.24072218 74.50519672 18 74 C17.74476563 74.88816406 17.48953125 75.77632813 17.2265625 76.69140625 C12.99106875 88.1164483 2.47630581 95.99001621 -8 101.3125 C-8.66451172 101.65039551 -9.32902344 101.98829102 -10.01367188 102.33642578 C-22.73164052 108.51095579 -38.56446519 109.28199682 -52.125 105.375 C-54.10395581 104.63639358 -56.06474102 103.84650943 -58 103 C-58.92683594 102.61070312 -59.85367188 102.22140625 -60.80859375 101.8203125 C-75.39472302 94.82724627 -85.05030117 81.40120489 -91.01953125 66.796875 C-96.35823878 51.5677332 -93.37457224 34.37048231 -86.6484375 20.140625 C-78.41901763 5.33686411 -65.78457906 -3.52740955 -50 -9 C-33.22688082 -13.6199644 -14.16368935 -9.54509499 0 0 Z " fill="#596371" transform="translate(355,199)"/>
<path d="M0 0 C11.95497889 9.21732112 21.8614055 22.66260508 24 38 C25.25021593 57.38274914 22.30472313 73.63701779 9.3125 88.75 C-1.38910611 99.97948803 -15.61934533 106.92478913 -31.14526367 107.34326172 C-49.54600547 107.5572047 -64.1040109 102.27156718 -77.68359375 89.45703125 C-88.22593807 78.27467952 -93.91648172 62.97391434 -93.57446289 47.67724609 C-92.72310842 31.90748902 -87.55447555 17.96803653 -76.625 6.35546875 C-71.8966193 2.11259142 -66.55062024 -0.95702037 -61 -4 C-59.84757813 -4.6496875 -59.84757813 -4.6496875 -58.671875 -5.3125 C-40.48883214 -15.04830248 -16.54482432 -11.14977291 0 0 Z " fill="#85A8E0" transform="translate(577,272)"/>
<path d="M0 0 C4.05819183 0.65503282 7.53971282 1.94559121 11.3125 3.5625 C12.91544922 4.24505859 12.91544922 4.24505859 14.55078125 4.94140625 C15.35902344 5.29074219 16.16726563 5.64007813 17 6 C15.73063053 8.73362753 14.37591334 10.92280422 12.3828125 13.1796875 C11.86444824 13.77152832 11.34608398 14.36336914 10.81201172 14.97314453 C10.25529785 15.60075684 9.69858398 16.22836914 9.125 16.875 C7.94234592 18.22364061 6.76006248 19.57260632 5.578125 20.921875 C4.97935547 21.60314453 4.38058594 22.28441406 3.76367188 22.98632812 C1.11210152 26.01375784 -1.50857824 29.06719177 -4.125 32.125 C-4.61790527 32.70040527 -5.11081055 33.27581055 -5.61865234 33.86865234 C-9.38191348 38.26635197 -13.12190516 42.68345195 -16.85595703 47.10595703 C-20.72106537 51.68010709 -24.61816847 56.22629901 -28.51953125 60.76953125 C-31.86292298 64.66583531 -35.18792482 68.57705217 -38.5 72.5 C-42.815252 77.61114862 -47.16166658 82.69469142 -51.51953125 87.76953125 C-54.8629234 91.66583579 -58.1878704 95.57709772 -61.5 99.5 C-65.29523727 103.99409053 -69.1079093 108.47264267 -72.9375 112.9375 C-73.68253784 113.80628784 -73.68253784 113.80628784 -74.44262695 114.69262695 C-76.99510418 117.66756041 -79.55069982 120.6397708 -82.109375 123.609375 C-86.6983591 128.94120634 -91.25877834 134.28329671 -95.6875 139.75 C-99.24267904 144.13151795 -102.96769537 148.31710681 -106.765625 152.48828125 C-109.00134533 155.00151232 -111.13377682 157.57311479 -113.25 160.1875 C-117.0399801 164.86805846 -120.93179551 169.44867499 -124.875 174 C-125.43477539 174.64735107 -125.99455078 175.29470215 -126.57128906 175.96166992 C-128.98280507 178.73667036 -131.39648864 181.39648864 -134 184 C-136.64 178.06 -139.28 172.12 -142 166 C-140.535625 164.411875 -139.07125 162.82375 -137.5625 161.1875 C-133.35926928 156.59051599 -129.38402734 151.84975127 -125.46875 147.00390625 C-122.59962776 143.51283821 -119.65355539 140.09621768 -116.6875 136.6875 C-115.86076782 135.73713867 -115.86076782 135.73713867 -115.01733398 134.76757812 C-113.89821841 133.48151545 -112.77899624 132.19554552 -111.65966797 130.90966797 C-105.45127377 123.76608759 -99.27176028 116.60354128 -93.3125 109.25 C-89.75732096 104.86848205 -86.03230463 100.68289319 -82.234375 96.51171875 C-79.99865467 93.99848768 -77.86622318 91.42688521 -75.75 88.8125 C-71.58915231 83.67305572 -67.28265511 78.67673848 -62.94067383 73.69091797 C-59.40839916 69.63216642 -55.90572963 65.55109891 -52.4375 61.4375 C-48.66426981 56.96316516 -44.87348076 52.50473995 -41.0625 48.0625 C-40.56572754 47.48322754 -40.06895508 46.90395508 -39.55712891 46.30712891 C-37.00476011 43.33225354 -34.4492253 40.36014229 -31.890625 37.390625 C-27.3016409 32.05879366 -22.74122166 26.71670329 -18.3125 21.25 C-14.68542121 16.78033303 -10.89471748 12.49352077 -7.01953125 8.23828125 C-4.59747853 5.55387852 -2.28517492 2.80118216 0 0 Z " fill="#2D6AD5" transform="translate(511,371)"/>
<path d="M0 0 C4.06991024 3.29056572 7.66896433 6.65484622 11.1232605 10.58981323 C15.93222047 15.97885301 20.96938566 21.09671095 26.09033203 26.18798828 C27.06573606 27.16146691 28.04090807 28.13517807 29.01586914 29.10910034 C31.09487369 31.18497454 33.17541311 33.25929287 35.25720596 35.33237076 C38.55594309 38.61744085 41.85073305 41.90645149 45.14498901 45.1960144 C52.13534506 52.17533308 59.12994658 59.15038978 66.125 66.125 C73.68684383 73.66476007 81.24792115 81.2052799 88.80411804 88.75069988 C92.07231978 92.01395104 95.34293566 95.27475638 98.6154902 98.53364205 C100.6561676 100.56681008 102.69472602 102.60209288 104.73274231 104.63792801 C106.1144169 106.01686762 107.4986101 107.39328222 108.88290405 108.76959229 C113.24748211 113.1338032 117.47369816 117.55088341 121.47681332 122.25041008 C124.17830912 125.35345049 127.10689328 128.22974681 130.02734375 131.125 C130.66112442 131.75736572 131.29490509 132.38973145 131.94789124 133.04125977 C133.94205978 135.02989986 135.93970353 137.01500527 137.9375 139 C139.30296745 140.36044318 140.66820386 141.72111831 142.03320312 143.08203125 C145.35280886 146.3907031 148.67553273 149.69621322 152 153 C149.36923129 155.99999941 146.25820168 157.72382055 142.8125 159.6875 C141.72582031 160.31011719 140.63914062 160.93273437 139.51953125 161.57421875 C138.68808594 162.04472656 137.85664063 162.51523437 137 163 C123.16676522 149.19016238 109.3364223 135.37743491 95.50948238 121.56129456 C89.0888196 115.14578027 82.66722662 108.73120234 76.2434082 102.31884766 C70.64209995 96.72753052 65.0425728 91.13443675 59.44514567 85.53923416 C56.48340947 82.57879756 53.5208104 79.61923662 50.55607414 76.6618042 C47.76076433 73.87332455 44.96785727 71.0824601 42.17670822 68.2898159 C41.15655382 67.2699347 40.13555401 66.25089825 39.11360741 65.23281288 C34.04323032 60.18064162 29.09583954 55.09227111 24.43454647 49.65885544 C22.70192923 47.65532221 20.87789685 45.77044149 18.99243164 43.91064453 C18.29223404 43.21697784 17.59203644 42.52331116 16.87062073 41.80862427 C15.77644081 40.73159744 15.77644081 40.73159744 14.66015625 39.6328125 C13.08776325 38.07304506 11.51550129 36.51314552 9.94335938 34.953125 C7.4871288 32.52186969 5.0293121 30.09225729 2.5690918 27.66503906 C0.17847165 25.30443461 -2.20604474 22.93780197 -4.58984375 20.5703125 C-5.33346664 19.84014923 -6.07708954 19.10998596 -6.84324646 18.35769653 C-7.52137894 17.68294281 -8.19951141 17.00818909 -8.89819336 16.31298828 C-9.49885117 15.7197879 -10.09950897 15.12658752 -10.71836853 14.51541138 C-12 13 -12 13 -12 11 C-10.390625 9.4140625 -10.390625 9.4140625 -8.25 7.625 C-5.3756268 5.18382134 -2.61456008 2.72350008 0 0 Z " fill="#2D6AD5" transform="translate(367,113)"/>
<path d="M0 0 C1.9009762 2.8514643 2.96265899 5.29710476 4.125 8.5 C4.47820312 9.4590625 4.83140625 10.418125 5.1953125 11.40625 C6 14 6 14 6 17 C-12.0449637 24.0938678 -30.0913607 31.18408039 -48.13959503 38.2696228 C-49.94640541 38.97895928 -51.7532017 39.68833163 -53.55999756 40.39770508 C-59.99552682 42.92413676 -66.43168768 45.44894733 -72.86883545 47.97125244 C-74.81388455 48.73360006 -76.7587529 49.49640901 -78.70343018 50.25970459 C-88.09895609 53.94703689 -97.48954011 57.61655528 -107 61 C-109.31 55.72 -111.62 50.44 -114 45 C-95.80611537 37.53993075 -77.55966348 30.23426851 -59.25 23.0625 C-56.79684702 22.10016897 -54.34372229 21.13776595 -51.890625 20.17529297 C-34.61317395 13.39995698 -17.3222328 6.66007005 0 0 Z " fill="#2D6AD5" transform="translate(484,331)"/>
<path d="M0 0 C8.59521114 2.39314247 16.91893822 5.47364835 25.26953125 8.59375 C26.75509065 9.14628487 28.24074444 9.69856604 29.72648621 10.25061035 C32.84124017 11.40865367 35.95522696 12.56872747 39.06860352 13.73046875 C43.72992544 15.46980192 48.39319324 17.20387546 53.05664062 18.9375 C57.61665145 20.63277358 62.17565223 22.33060783 66.73074341 24.0390625 C68.22365181 24.59896194 69.71656155 25.15885779 71.20947266 25.71875 C71.94000414 25.99279663 72.67053562 26.26684326 73.42320442 26.54919434 C77.79427055 28.18540978 82.17385574 29.79563701 86.56257725 31.38387299 C89.30112313 32.3767829 92.03525344 33.38148767 94.76877403 34.38813782 C96.65593883 35.07793041 98.54909363 35.75126477 100.44233704 36.42419434 C101.56053329 36.83786255 102.67872955 37.25153076 103.83081055 37.67773438 C104.81019089 38.03170288 105.78957123 38.38567139 106.79862976 38.75036621 C109 40 109 40 109.85798645 41.94299316 C110.07243914 45.04925069 109.31480109 47.74079566 108.5625 50.75 C108.27503906 51.92046875 107.98757813 53.0909375 107.69140625 54.296875 C107.46324219 55.18890625 107.23507812 56.0809375 107 57 C102.04357782 56.43491134 97.76536084 55.36090315 93.10375977 53.59838867 C92.45188187 53.35417175 91.80000397 53.10995483 91.12837219 52.8583374 C88.98011306 52.05161244 86.83582473 51.2348421 84.69140625 50.41796875 C83.16405112 49.84216756 81.63645288 49.2670109 80.10862732 48.69245911 C76.07272806 47.17279974 72.04009268 45.64465965 68.00811768 44.11462402 C64.02873191 42.60605456 60.04652573 41.1049752 56.06445312 39.60351562 C50.57768392 37.53397402 45.09184828 35.46199418 39.60724449 33.38672066 C29.62885267 29.61132603 19.64270359 25.85688292 9.65234375 22.11328125 C8.95041964 21.85024893 8.24849552 21.58721661 7.52530098 21.31621361 C3.68377268 19.87683789 -0.15799642 18.4381067 -4 17 C-3.68013968 15.5547048 -3.3599213 14.10948883 -3.03955078 12.66430664 C-2.8612674 11.85949356 -2.68298401 11.05468048 -2.4992981 10.22547913 C-1.7306565 6.79947802 -0.86608087 3.40246056 0 0 Z " fill="#2D6BD5" transform="translate(378,256)"/>
</svg>
